<svg xmlns="http://www.w3.org/2000/svg" viewBox="0 0 512 512" role="img" aria-label="파주 버스 아이콘">
  <defs>
    <linearGradient id="bg" x1="96" y1="40" x2="430" y2="472" gradientUnits="userSpaceOnUse">
      <stop offset="0" stop-color="#21a579"/>
      <stop offset="0.58" stop-color="#157e5c"/>
      <stop offset="1" stop-color="#0d4c3d"/>
    </linearGradient>
    <linearGradient id="road" x1="154" y1="394" x2="374" y2="394" gradientUnits="userSpaceOnUse">
      <stop offset="0" stop-color="#d8efe4"/>
      <stop offset="1" stop-color="#ffffff"/>
    </linearGradient>
    <filter id="shadow" x="-20%" y="-20%" width="140%" height="145%">
      <feDropShadow dx="0" dy="16" stdDeviation="18" flood-color="#073126" flood-opacity="0.28"/>
    </filter>
  </defs>
  <rect width="512" height="512" rx="112" fill="url(#bg)"/>
  <path d="M256 68c-92 0-166 72-166 162 0 116 132 207 159 224 4 3 10 3 14 0 27-17 159-108 159-224 0-90-74-162-166-162Z" fill="#eaf8f1" opacity=".22"/>
  <path d="M150 378c36 20 72 30 106 30s70-10 106-30l35 54c-47 26-94 39-141 39s-94-13-141-39l35-54Z" fill="url(#road)" opacity=".9"/>
  <g filter="url(#shadow)">
    <rect x="132" y="126" width="248" height="250" rx="36" fill="#fdfefa"/>
    <path d="M168 118h176c15 0 28 12 28 28v30H140v-30c0-16 13-28 28-28Z" fill="#0f654d"/>
    <rect x="160" y="190" width="192" height="96" rx="18" fill="#bfe7dc"/>
    <path d="M177 206h158c7 0 12 5 12 12v15H165v-15c0-7 5-12 12-12Z" fill="#e9fbf5" opacity=".78"/>
    <rect x="164" y="308" width="62" height="28" rx="14" fill="#f4c95d"/>
    <rect x="286" y="308" width="62" height="28" rx="14" fill="#f4c95d"/>
    <circle cx="188" cy="374" r="24" fill="#14362e"/>
    <circle cx="324" cy="374" r="24" fill="#14362e"/>
    <circle cx="188" cy="374" r="10" fill="#d7ded2"/>
    <circle cx="324" cy="374" r="10" fill="#d7ded2"/>
    <path d="M213 151h86" stroke="#fdfefa" stroke-width="16" stroke-linecap="round"/>
  </g>
  <path d="M256 91c-29 0-53 23-53 52 0 38 42 69 50 74 2 1 4 1 6 0 8-5 50-36 50-74 0-29-24-52-53-52Zm0 73a22 22 0 1 1 0-44 22 22 0 0 1 0 44Z" fill="#ffffff"/>
</svg>
